# xmcd CD database file
#
# Track frame offsets:
#	150
#	12721
#	28220
#	47400
#	59496
#	80577
#	89607
#	105696
#	121903
#	139106
#	151085
#	168690
#
# Disc length: 2443 seconds
#
# Revision: 2
# Processed by: cddbd v1.5.2PL0 Copyright (c) Steve Scherf et al.
# Submitted via: CDex 1.72
#
DISCID=a109890c
DTITLE=Larisey, Robert [CDN-OVM-10-Nights Take Forever-Cty) Lanark, ON - Nights Take Forever
DYEAR=2010
DGENRE=Country
TTITLE0=Wishful Thinking
TTITLE1=Fiddle N' Bass
TTITLE2=Stone Walls
TTITLE3=Sweet Louise
TTITLE4=Smokin' N' Drinkin'
TTITLE5=Talking About Fishin'
TTITLE6=3 Squares A Day
TTITLE7=Yesterday
TTITLE8=Storm Windows
TTITLE9=Black Heart
TTITLE10=Whiskey Plowboy
TTITLE11=Barb's Song
EXTD=YEAR: 2010
EXTT0=
EXTT1=
EXTT2=
EXTT3=
EXTT4=
EXTT5=
EXTT6=
EXTT7=
EXTT8=
EXTT9=
EXTT10=
EXTT11=
PLAYORDER=
